<mxfile host="Electron" modified="2023-04-10T15:13:57.521Z" agent="Mozilla/5.0 (Windows NT 10.0; Win64; x64) AppleWebKit/537.36 (KHTML, like Gecko) draw.io/21.1.2 Chrome/106.0.5249.199 Electron/21.4.3 Safari/537.36" etag="ztNoKVdsgfq1mljXXnbq" version="21.1.2" type="device">
  <diagram name="Page-1" id="FxitBaApEOWrgbqJlyL4">
    <mxGraphModel dx="1418" dy="1868" grid="1" gridSize="10" guides="1" tooltips="1" connect="1" arrows="1" fold="1" page="1" pageScale="1" pageWidth="850" pageHeight="1100" math="0" shadow="0">
      <root>
        <mxCell id="0" />
        <mxCell id="1" parent="0" />
        <mxCell id="d11l2i6CfI2T28KJIl7Y-20" value="" style="rounded=0;whiteSpace=wrap;html=1;fillColor=none;strokeColor=none;" parent="1" vertex="1">
          <mxGeometry x="80" y="160" width="80" height="120" as="geometry" />
        </mxCell>
        <mxCell id="d11l2i6CfI2T28KJIl7Y-25" style="rounded=0;orthogonalLoop=1;jettySize=auto;html=1;exitX=1;exitY=0.5;exitDx=0;exitDy=0;entryX=0;entryY=0;entryDx=45;entryDy=120;entryPerimeter=0;dashed=1;strokeWidth=2;" parent="1" source="d11l2i6CfI2T28KJIl7Y-19" target="d11l2i6CfI2T28KJIl7Y-18" edge="1">
          <mxGeometry relative="1" as="geometry" />
        </mxCell>
        <mxCell id="d11l2i6CfI2T28KJIl7Y-19" value="" style="rounded=0;whiteSpace=wrap;html=1;fillColor=none;strokeColor=none;" parent="1" vertex="1">
          <mxGeometry x="80" y="520" width="80" height="120" as="geometry" />
        </mxCell>
        <mxCell id="d11l2i6CfI2T28KJIl7Y-16" value="&lt;b&gt;Сервер&lt;/b&gt;" style="verticalAlign=top;align=center;shape=cube;size=10;direction=south;html=1;boundedLbl=1;spacingLeft=5;whiteSpace=wrap;strokeWidth=2;" parent="1" vertex="1">
          <mxGeometry x="360" y="440" width="402.5" height="280" as="geometry" />
        </mxCell>
        <mxCell id="d11l2i6CfI2T28KJIl7Y-15" value="&lt;b&gt;Компьютер програмиста&lt;/b&gt;" style="verticalAlign=top;align=center;shape=cube;size=10;direction=south;html=1;boundedLbl=1;spacingLeft=5;whiteSpace=wrap;strokeWidth=2;" parent="1" vertex="1">
          <mxGeometry x="360" width="402.5" height="400" as="geometry" />
        </mxCell>
        <mxCell id="d11l2i6CfI2T28KJIl7Y-5" value="&lt;b&gt;docker-compose.yml&lt;/b&gt;" style="verticalAlign=top;align=center;shape=cube;size=10;direction=south;html=1;boundedLbl=1;spacingLeft=5;whiteSpace=wrap;strokeWidth=2;" parent="1" vertex="1">
          <mxGeometry x="380.62" y="140" width="360" height="240" as="geometry" />
        </mxCell>
        <mxCell id="d11l2i6CfI2T28KJIl7Y-1" value="&lt;b&gt;cPanel&lt;/b&gt;" style="verticalAlign=top;align=center;shape=cube;size=10;direction=south;fontStyle=0;html=1;boundedLbl=1;spacingLeft=5;whiteSpace=wrap;strokeWidth=2;" parent="1" vertex="1">
          <mxGeometry x="380" y="480" width="360" height="210" as="geometry" />
        </mxCell>
        <mxCell id="d11l2i6CfI2T28KJIl7Y-3" value="Програмист" style="shape=umlActor;verticalLabelPosition=bottom;verticalAlign=top;html=1;strokeWidth=2;" parent="1" vertex="1">
          <mxGeometry x="105" y="190" width="30" height="60" as="geometry" />
        </mxCell>
        <mxCell id="d11l2i6CfI2T28KJIl7Y-28" style="rounded=0;orthogonalLoop=1;jettySize=auto;html=1;exitX=0;exitY=0;exitDx=35;exitDy=0;exitPerimeter=0;entryX=0;entryY=0;entryDx=0;entryDy=52.5;entryPerimeter=0;dashed=1;strokeWidth=2;" parent="1" source="d11l2i6CfI2T28KJIl7Y-4" target="d11l2i6CfI2T28KJIl7Y-6" edge="1">
          <mxGeometry relative="1" as="geometry" />
        </mxCell>
        <mxCell id="d11l2i6CfI2T28KJIl7Y-4" value="&lt;b&gt;NodeJS&lt;/b&gt;&lt;br&gt;&lt;br&gt;node dist/index.js" style="verticalAlign=top;align=center;shape=cube;size=10;direction=south;html=1;boundedLbl=1;spacingLeft=5;whiteSpace=wrap;strokeWidth=2;" parent="1" vertex="1">
          <mxGeometry x="411.25" y="590" width="120" height="80" as="geometry" />
        </mxCell>
        <mxCell id="d11l2i6CfI2T28KJIl7Y-8" value="&lt;b&gt;Docker container&lt;/b&gt;&lt;br&gt;&lt;br&gt;docker.io&lt;br&gt;/phpmyadmin&lt;br&gt;/phpmyadmin:latest" style="verticalAlign=top;align=center;shape=cube;size=10;direction=south;html=1;boundedLbl=1;spacingLeft=5;whiteSpace=wrap;strokeWidth=2;" parent="1" vertex="1">
          <mxGeometry x="402.5" y="270" width="140" height="100" as="geometry" />
        </mxCell>
        <mxCell id="d11l2i6CfI2T28KJIl7Y-9" value="&lt;b&gt;Docker container&lt;/b&gt;&lt;br&gt;&lt;br&gt;docker.io&lt;br&gt;/mysql:8.0" style="verticalAlign=top;align=center;shape=cube;size=10;direction=south;html=1;boundedLbl=1;spacingLeft=5;whiteSpace=wrap;strokeWidth=2;" parent="1" vertex="1">
          <mxGeometry x="562.5" y="180" width="155" height="170" as="geometry" />
        </mxCell>
        <mxCell id="d11l2i6CfI2T28KJIl7Y-6" value="MySQL" style="shape=cylinder3;whiteSpace=wrap;html=1;boundedLbl=1;backgroundOutline=1;size=15;strokeWidth=2;" parent="1" vertex="1">
          <mxGeometry x="610" y="560" width="80" height="80" as="geometry" />
        </mxCell>
        <mxCell id="d11l2i6CfI2T28KJIl7Y-29" style="rounded=0;orthogonalLoop=1;jettySize=auto;html=1;exitX=0;exitY=0;exitDx=15;exitDy=0;exitPerimeter=0;dashed=1;strokeWidth=2;" parent="1" source="d11l2i6CfI2T28KJIl7Y-11" edge="1">
          <mxGeometry relative="1" as="geometry">
            <mxPoint x="610" y="600" as="targetPoint" />
          </mxGeometry>
        </mxCell>
        <mxCell id="d11l2i6CfI2T28KJIl7Y-11" value="&lt;b&gt;phpMyAdmin&lt;/b&gt;" style="verticalAlign=top;align=center;shape=cube;size=10;direction=south;html=1;boundedLbl=1;spacingLeft=5;whiteSpace=wrap;strokeWidth=2;" parent="1" vertex="1">
          <mxGeometry x="412.5" y="520" width="120" height="40" as="geometry" />
        </mxCell>
        <mxCell id="d11l2i6CfI2T28KJIl7Y-12" value="MySQL" style="shape=cylinder3;whiteSpace=wrap;html=1;boundedLbl=1;backgroundOutline=1;size=15;strokeWidth=2;" parent="1" vertex="1">
          <mxGeometry x="600" y="260" width="80" height="80" as="geometry" />
        </mxCell>
        <mxCell id="d11l2i6CfI2T28KJIl7Y-24" style="rounded=0;orthogonalLoop=1;jettySize=auto;html=1;exitX=0;exitY=0;exitDx=35;exitDy=0;exitPerimeter=0;entryX=0;entryY=0.5;entryDx=0;entryDy=0;entryPerimeter=0;dashed=1;strokeWidth=2;" parent="1" source="d11l2i6CfI2T28KJIl7Y-13" target="d11l2i6CfI2T28KJIl7Y-12" edge="1">
          <mxGeometry relative="1" as="geometry" />
        </mxCell>
        <mxCell id="d11l2i6CfI2T28KJIl7Y-13" value="&lt;b&gt;NodeJS&lt;/b&gt;&lt;br&gt;&lt;br&gt;nest start --watch" style="verticalAlign=top;align=center;shape=cube;size=10;direction=south;html=1;boundedLbl=1;spacingLeft=5;whiteSpace=wrap;strokeWidth=2;" parent="1" vertex="1">
          <mxGeometry x="412.5" y="180" width="120" height="80" as="geometry" />
        </mxCell>
        <mxCell id="d11l2i6CfI2T28KJIl7Y-14" value="Пользователь" style="shape=umlActor;verticalLabelPosition=bottom;verticalAlign=top;html=1;strokeWidth=2;" parent="1" vertex="1">
          <mxGeometry x="105" y="550" width="30" height="60" as="geometry" />
        </mxCell>
        <mxCell id="d11l2i6CfI2T28KJIl7Y-27" style="rounded=0;orthogonalLoop=1;jettySize=auto;html=1;exitX=0;exitY=0;exitDx=35;exitDy=0;exitPerimeter=0;entryX=0;entryY=0;entryDx=45;entryDy=120;entryPerimeter=0;dashed=1;strokeWidth=2;" parent="1" source="d11l2i6CfI2T28KJIl7Y-18" target="d11l2i6CfI2T28KJIl7Y-4" edge="1">
          <mxGeometry relative="1" as="geometry" />
        </mxCell>
        <mxCell id="d11l2i6CfI2T28KJIl7Y-18" value="&lt;b&gt;Android&lt;/b&gt;&lt;br&gt;&lt;br&gt;app-release.apk" style="verticalAlign=top;align=center;shape=cube;size=10;direction=south;html=1;boundedLbl=1;spacingLeft=5;whiteSpace=wrap;strokeWidth=2;" parent="1" vertex="1">
          <mxGeometry x="220" y="600" width="120" height="80" as="geometry" />
        </mxCell>
        <mxCell id="d11l2i6CfI2T28KJIl7Y-30" style="rounded=0;orthogonalLoop=1;jettySize=auto;html=1;exitX=0;exitY=0;exitDx=45;exitDy=0;exitPerimeter=0;entryX=0;entryY=0;entryDx=0;entryDy=52.5;entryPerimeter=0;dashed=1;strokeWidth=2;" parent="1" source="d11l2i6CfI2T28KJIl7Y-8" target="d11l2i6CfI2T28KJIl7Y-12" edge="1">
          <mxGeometry relative="1" as="geometry" />
        </mxCell>
        <mxCell id="d11l2i6CfI2T28KJIl7Y-32" style="rounded=0;orthogonalLoop=1;jettySize=auto;html=1;exitX=1;exitY=0.5;exitDx=0;exitDy=0;entryX=0;entryY=0;entryDx=55;entryDy=140;entryPerimeter=0;dashed=1;strokeWidth=2;" parent="1" source="d11l2i6CfI2T28KJIl7Y-20" target="d11l2i6CfI2T28KJIl7Y-8" edge="1">
          <mxGeometry relative="1" as="geometry" />
        </mxCell>
        <mxCell id="d11l2i6CfI2T28KJIl7Y-40" style="rounded=0;orthogonalLoop=1;jettySize=auto;html=1;exitX=0;exitY=0;exitDx=80;exitDy=65;exitPerimeter=0;entryX=0;entryY=0;entryDx=0;entryDy=55;entryPerimeter=0;dashed=1;strokeWidth=2;" parent="1" source="d11l2i6CfI2T28KJIl7Y-33" target="d11l2i6CfI2T28KJIl7Y-13" edge="1">
          <mxGeometry relative="1" as="geometry" />
        </mxCell>
        <mxCell id="d11l2i6CfI2T28KJIl7Y-33" value="&lt;b&gt;Android Emulator&lt;/b&gt;&lt;br&gt;&lt;br&gt;app-debug.apk" style="verticalAlign=top;align=center;shape=cube;size=10;direction=south;html=1;boundedLbl=1;spacingLeft=5;whiteSpace=wrap;strokeWidth=2;" parent="1" vertex="1">
          <mxGeometry x="401.56" y="40" width="139.38" height="80" as="geometry" />
        </mxCell>
        <mxCell id="d11l2i6CfI2T28KJIl7Y-39" style="rounded=0;orthogonalLoop=1;jettySize=auto;html=1;exitX=1;exitY=0.5;exitDx=0;exitDy=0;entryX=0;entryY=0;entryDx=45;entryDy=139.38;entryPerimeter=0;dashed=1;strokeWidth=2;" parent="1" source="d11l2i6CfI2T28KJIl7Y-20" target="d11l2i6CfI2T28KJIl7Y-33" edge="1">
          <mxGeometry relative="1" as="geometry" />
        </mxCell>
        <mxCell id="d11l2i6CfI2T28KJIl7Y-41" style="rounded=0;orthogonalLoop=1;jettySize=auto;html=1;exitX=1;exitY=0.5;exitDx=0;exitDy=0;entryX=0;entryY=0;entryDx=45;entryDy=120;entryPerimeter=0;dashed=1;strokeWidth=2;" parent="1" source="d11l2i6CfI2T28KJIl7Y-20" target="d11l2i6CfI2T28KJIl7Y-13" edge="1">
          <mxGeometry relative="1" as="geometry" />
        </mxCell>
        <mxCell id="d11l2i6CfI2T28KJIl7Y-42" value="SwaggerUI" style="edgeLabel;html=1;align=center;verticalAlign=middle;resizable=0;points=[];" parent="d11l2i6CfI2T28KJIl7Y-41" vertex="1" connectable="0">
          <mxGeometry x="-0.1363" y="4" relative="1" as="geometry">
            <mxPoint x="16" y="-8" as="offset" />
          </mxGeometry>
        </mxCell>
        <mxCell id="knsTogu7Sc9OzD1N0pWD-1" style="rounded=0;orthogonalLoop=1;jettySize=auto;html=1;exitX=0.5;exitY=1;exitDx=0;exitDy=0;entryX=0;entryY=0;entryDx=10;entryDy=120;entryPerimeter=0;dashed=1;strokeWidth=2;" edge="1" parent="1" source="d11l2i6CfI2T28KJIl7Y-20" target="d11l2i6CfI2T28KJIl7Y-4">
          <mxGeometry relative="1" as="geometry" />
        </mxCell>
        <mxCell id="knsTogu7Sc9OzD1N0pWD-3" value="SwaggerUi" style="edgeLabel;html=1;align=center;verticalAlign=middle;resizable=0;points=[];" vertex="1" connectable="0" parent="knsTogu7Sc9OzD1N0pWD-1">
          <mxGeometry x="0.1426" y="-3" relative="1" as="geometry">
            <mxPoint x="-4" y="35" as="offset" />
          </mxGeometry>
        </mxCell>
        <mxCell id="knsTogu7Sc9OzD1N0pWD-2" style="rounded=0;orthogonalLoop=1;jettySize=auto;html=1;exitX=0.5;exitY=1;exitDx=0;exitDy=0;entryX=0;entryY=0;entryDx=25;entryDy=120;entryPerimeter=0;dashed=1;strokeWidth=2;" edge="1" parent="1" source="d11l2i6CfI2T28KJIl7Y-20" target="d11l2i6CfI2T28KJIl7Y-11">
          <mxGeometry relative="1" as="geometry" />
        </mxCell>
      </root>
    </mxGraphModel>
  </diagram>
</mxfile>
